<!DOCTYPE svg PUBLIC "-//W3C//DTD SVG 1.1//EN" "http://www.w3.org/Graphics/SVG/1.1/DTD/svg11.dtd">
<!-- Uploaded to: SVG Repo, www.svgrepo.com, Transformed by: SVG Repo Mixer Tools -->
<svg height="64px" width="64px" version="1.1" id="Layer_1" xmlns="http://www.w3.org/2000/svg" xmlns:xlink="http://www.w3.org/1999/xlink" viewBox="0 0 512 512" xml:space="preserve" fill="#008a02">
<g id="SVGRepo_bgCarrier" stroke-width="0"/>
<g id="SVGRepo_tracerCarrier" stroke-linecap="round" stroke-linejoin="round"/>
<g id="SVGRepo_iconCarrier"> <g> <g> <path style="fill:#008a02;" d="M490.259,185.342h-43.464C436.582,81.437,353.976,0.544,253.282,0.544 S69.983,81.437,59.769,185.342H21.741C9.783,185.342,0,195.125,0,207.083v282.633c0,11.958,9.783,21.741,21.741,21.741h155.448 h156.535h155.448c11.958,0,21.741-9.783,22.828-21.741V207.083C512,195.125,502.217,185.342,490.259,185.342z M254.369,42.938 c76.868,0,140.894,62.344,150.838,142.403h-71.483H178.276h-1.087h-73.657C113.476,105.282,177.501,42.938,254.369,42.938z M200.017,228.824h111.966v240.238H200.017V228.824z M42.395,228.824h113.053v240.238H42.395V228.824z M467.431,469.062H355.465 V228.824h111.966V469.062z"/> </g> </g> </g>
</svg>