<svg width="112" height="18" viewBox="0 0 112 18" fill="none" xmlns="http://www.w3.org/2000/svg">
<path d="M8.70152 1.26853C8.83125 0.869251 9.39612 0.869251 9.52586 1.26853L11.1678 6.32202C11.2259 6.50058 11.3923 6.62148 11.58 6.62148H16.8936C17.3134 6.62148 17.4879 7.15871 17.1483 7.40548L12.8495 10.5287C12.6976 10.6391 12.6341 10.8347 12.6921 11.0132L14.3341 16.0667C14.4638 16.466 14.0068 16.798 13.6672 16.5513L9.36842 13.428C9.21653 13.3177 9.01085 13.3177 8.85895 13.428L4.56019 16.5513C4.22055 16.798 3.76355 16.466 3.89329 16.0667L5.53527 11.0132C5.59329 10.8347 5.52973 10.6391 5.37783 10.5287L1.07908 7.40548C0.739429 7.15871 0.913984 6.62148 1.33381 6.62148H6.64737C6.83512 6.62148 7.00152 6.50058 7.05954 6.32202L8.70152 1.26853Z" fill="#F6961B"/>
<path d="M32.1295 1.26853C32.2592 0.869251 32.8241 0.869251 32.9538 1.26853L34.5958 6.32202C34.6538 6.50058 34.8202 6.62148 35.008 6.62148H40.3215C40.7414 6.62148 40.9159 7.15871 40.5763 7.40548L36.2775 10.5287C36.1256 10.6391 36.0621 10.8347 36.1201 11.0132L37.7621 16.0667C37.8918 16.466 37.4348 16.798 37.0952 16.5513L32.7964 13.428C32.6445 13.3177 32.4388 13.3177 32.2869 13.428L27.9882 16.5513C27.6485 16.798 27.1915 16.466 27.3213 16.0667L28.9632 11.0132C29.0213 10.8347 28.9577 10.6391 28.8058 10.5287L24.5071 7.40548C24.1674 7.15871 24.342 6.62148 24.7618 6.62148H30.0753C30.2631 6.62148 30.4295 6.50058 30.4875 6.32202L32.1295 1.26853Z" fill="#F6961B"/>
<path d="M55.5575 1.26853C55.6873 0.869251 56.2521 0.869251 56.3819 1.26853L58.0239 6.32202C58.0819 6.50058 58.2483 6.62148 58.436 6.62148H63.7496C64.1694 6.62148 64.344 7.15871 64.0043 7.40548L59.7056 10.5287C59.5537 10.6391 59.4901 10.8347 59.5481 11.0132L61.1901 16.0667C61.3198 16.466 60.8628 16.798 60.5232 16.5513L56.2244 13.428C56.0725 13.3177 55.8669 13.3177 55.715 13.428L51.4162 16.5513C51.0766 16.798 50.6196 16.466 50.7493 16.0667L52.3913 11.0132C52.4493 10.8347 52.3857 10.6391 52.2339 10.5287L47.9351 7.40548C47.5954 7.15871 47.77 6.62148 48.1898 6.62148H53.5034C53.6911 6.62148 53.8575 6.50058 53.9156 6.32202L55.5575 1.26853Z" fill="#F6961B"/>
<path d="M78.9854 1.26853C79.1151 0.869251 79.68 0.869251 79.8097 1.26853L81.4517 6.32202C81.5097 6.50058 81.6761 6.62148 81.8639 6.62148H87.1774C87.5973 6.62148 87.7718 7.15871 87.4322 7.40548L83.1334 10.5287C82.9815 10.6391 82.918 10.8347 82.976 11.0132L84.618 16.0667C84.7477 16.466 84.2907 16.798 83.9511 16.5513L79.6523 13.428C79.5004 13.3177 79.2947 13.3177 79.1428 13.428L74.8441 16.5513C74.5044 16.798 74.0474 16.466 74.1772 16.0667L75.8191 11.0132C75.8772 10.8347 75.8136 10.6391 75.6617 10.5287L71.363 7.40548C71.0233 7.15871 71.1979 6.62148 71.6177 6.62148H76.9312C77.119 6.62148 77.2854 6.50058 77.3434 6.32202L78.9854 1.26853Z" fill="#F6961B"/>
<path d="M102.413 1.26853C102.543 0.869251 103.108 0.869251 103.238 1.26853L104.88 6.32202C104.938 6.50058 105.104 6.62148 105.292 6.62148H110.605C111.025 6.62148 111.2 7.15871 110.86 7.40548L106.561 10.5287C106.409 10.6391 106.346 10.8347 106.404 11.0132L108.046 16.0667C108.176 16.466 107.719 16.798 107.379 16.5513L103.08 13.428C102.928 13.3177 102.723 13.3177 102.571 13.428L98.272 16.5513C97.9323 16.798 97.4753 16.466 97.6051 16.0667L99.2471 11.0132C99.3051 10.8347 99.2415 10.6391 99.0896 10.5287L94.7909 7.40548C94.4512 7.15871 94.6258 6.62148 95.0456 6.62148H100.359C100.547 6.62148 100.713 6.50058 100.771 6.32202L102.413 1.26853Z" fill="#F6961B"/>
</svg>
